<svg width="27" height="29" viewBox="0 0 27 29" fill="none" xmlns="http://www.w3.org/2000/svg">
<path fill-rule="evenodd" clip-rule="evenodd" d="M12.7302 0.304261C12.8264 0.207814 12.9407 0.131295 13.0665 0.0790847C13.1923 0.0268747 13.3272 0 13.4634 0C13.5997 0 13.7345 0.0268747 13.8604 0.0790847C13.9862 0.131295 14.1005 0.207814 14.1967 0.304261L26.6244 12.732C26.7206 12.8284 26.7967 12.9427 26.8486 13.0686C26.9005 13.1944 26.9271 13.3292 26.9269 13.4653V27.9644C26.9269 28.239 26.8177 28.5024 26.6235 28.6967C26.4293 28.8909 26.1659 29 25.8912 29H16.5704C16.2957 29 16.0323 28.8909 15.8381 28.6967C15.6438 28.5024 15.5347 28.239 15.5347 27.9644V19.6792H11.3921V27.9644C11.3921 28.239 11.283 28.5024 11.0888 28.6967C10.8946 28.8909 10.6312 29 10.3565 29H1.03565C0.760979 29 0.497558 28.8909 0.303336 28.6967C0.109114 28.5024 1.65185e-06 28.239 1.65185e-06 27.9644V13.4653C-0.000241409 13.3292 0.0263416 13.1944 0.0782311 13.0686C0.130121 12.9427 0.206299 12.8284 0.302411 12.732L12.7302 0.304261ZM2.0713 13.894V26.9287H9.32084V18.6435C9.32084 18.3688 9.42995 18.1054 9.62417 17.9112C9.81839 17.717 10.0818 17.6079 10.3565 17.6079H16.5704C16.845 17.6079 17.1085 17.717 17.3027 17.9112C17.4969 18.1054 17.606 18.3688 17.606 18.6435V26.9287H24.8556V13.894L13.4634 2.50191L2.0713 13.894Z" fill="#002F67"/>
</svg>
