<svg width="26" height="16" viewBox="0 0 26 16" fill="none" xmlns="http://www.w3.org/2000/svg">
<path fill-rule="evenodd" clip-rule="evenodd" d="M8.35159 0.318243C8.45247 0.418867 8.53251 0.538405 8.58712 0.670009C8.64173 0.801612 8.66983 0.942697 8.66983 1.08518C8.66983 1.22767 8.64173 1.36875 8.58712 1.50035C8.53251 1.63196 8.45247 1.7515 8.35159 1.85212L2.61689 7.58465L8.35159 13.3172C8.45231 13.4179 8.5322 13.5375 8.58671 13.6691C8.64121 13.8007 8.66927 13.9417 8.66927 14.0841C8.66927 14.2266 8.64121 14.3676 8.58671 14.4992C8.5322 14.6308 8.45231 14.7503 8.35159 14.8511C8.25088 14.9518 8.13131 15.0317 7.99972 15.0862C7.86813 15.1407 7.72709 15.1687 7.58465 15.1687C7.44222 15.1687 7.30118 15.1407 7.16959 15.0862C7.038 15.0317 6.91843 14.9518 6.81772 14.8511L0.318244 8.35159C0.217365 8.25097 0.137329 8.13143 0.0827194 7.99982C0.0281099 7.86822 0 7.72714 0 7.58465C0 7.44217 0.0281099 7.30108 0.0827194 7.16948C0.137329 7.03788 0.217365 6.91834 0.318244 6.81772L6.81772 0.318243C6.91834 0.217365 7.03788 0.137328 7.16948 0.0827184C7.30108 0.0281089 7.44217 0 7.58465 0C7.72714 0 7.86822 0.0281089 7.99983 0.0827184C8.13143 0.137328 8.25097 0.217365 8.35159 0.318243Z" fill="#8CA8CA"/>
<path fill-rule="evenodd" clip-rule="evenodd" d="M1.08545 7.58508C1.08545 7.29778 1.19958 7.02225 1.40272 6.81911C1.60587 6.61596 1.8814 6.50183 2.16869 6.50183H24.9168C25.2041 6.50183 25.4797 6.61596 25.6828 6.81911C25.886 7.02225 26.0001 7.29778 26.0001 7.58508C26.0001 7.87237 25.886 8.1479 25.6828 8.35105C25.4797 8.55419 25.2041 8.66832 24.9168 8.66832H2.16869C1.8814 8.66832 1.60587 8.55419 1.40272 8.35105C1.19958 8.1479 1.08545 7.87237 1.08545 7.58508Z" fill="#8CA8CA"/>
</svg>
