<svg width="24" height="24" viewBox="0 0 24 24" fill="none" xmlns="http://www.w3.org/2000/svg">
<path d="M23.0149 21.7114L19.964 18.5781C21.7147 16.4824 22.5901 14.0658 22.5901 11.3281C22.5901 9.27018 22.0865 7.37272 21.0794 5.63574C20.0722 3.89876 18.698 2.52523 16.9567 1.51514C15.2154 0.505046 13.3234 0 11.2809 0C9.2384 0 7.35118 0.505046 5.61928 1.51514C3.88737 2.52523 2.51785 3.89876 1.51071 5.63574C0.50357 7.37272 0 9.27018 0 11.3281C0 13.3861 0.50357 15.2835 1.51071 17.0205C2.51785 18.7575 3.88737 20.131 5.61928 21.1411C7.35118 22.1512 9.2431 22.6562 11.295 22.6562C14.1 22.6562 16.566 21.7311 18.6933 19.8809L21.716 22.9858C21.9042 23.1746 22.1207 23.269 22.3654 23.269C22.6102 23.269 22.8219 23.1794 23.0008 23C23.1796 22.8206 23.269 22.6035 23.269 22.3486C23.269 22.0938 23.1843 21.8813 23.0149 21.7114ZM11.295 20.8721C9.56313 20.8721 7.96771 20.4425 6.50876 19.5835C5.04982 18.7244 3.89679 17.5633 3.04966 16.1001C2.20253 14.6369 1.77897 13.0462 1.77897 11.3281C1.77897 9.61003 2.20253 8.01937 3.04966 6.55615C3.89679 5.09294 5.04982 3.9318 6.50876 3.07275C7.96771 2.2137 9.55842 1.78418 11.2809 1.78418C13.0034 1.78418 14.5941 2.2137 16.0531 3.07275C17.512 3.9318 18.665 5.09294 19.5122 6.55615C20.3593 8.01937 20.7829 9.61003 20.7829 11.3281C20.7829 12.0645 20.6982 12.7913 20.5287 13.5088C20.3593 14.2262 20.1193 14.8965 19.8087 15.5195C19.4981 16.1426 19.1263 16.7326 18.6933 17.2896C18.2603 17.8465 17.7709 18.3421 17.2249 18.7764C16.679 19.2106 16.0954 19.5835 15.4742 19.895C14.853 20.2065 14.1847 20.4473 13.4693 20.6172C12.754 20.7871 12.0292 20.8721 11.295 20.8721Z" fill="white"/>
</svg>
