<svg width="32" height="30" viewBox="0 0 32 30" fill="none" xmlns="http://www.w3.org/2000/svg">
<path d="M25.6 7.71429V1.33929C25.5996 0.98421 25.459 0.643794 25.209 0.392718C24.9591 0.141641 24.6202 0.000407634 24.2667 0H7.73333C7.37984 0.000407634 7.04093 0.141641 6.79097 0.392718C6.54101 0.643794 6.40041 0.98421 6.4 1.33929V7.71429L0 12.3058V30H32V12.3058L25.6 7.71429ZM29.1786 12.9152L25.6 15.2652V10.3473L29.1786 12.9152ZM8.53333 2.14286H23.4667V16.6663L19.6556 19.1693L16.5504 17.5519L13.1661 19.193L8.53333 16.3677V2.14286ZM16.5163 19.948L29.8667 26.9014V27.8571H2.13333V26.9225L16.5163 19.948ZM2.13333 14.9715L10.8763 20.3036L2.13333 24.543V14.9715ZM21.8297 20.3019L29.8667 15.0232V24.4876L21.8297 20.3019ZM6.4 10.3473V15.067L2.8444 12.8983L6.4 10.3473Z" fill="#002F67"/>
</svg>
