<svg width="23" height="24" viewBox="0 0 23 24" fill="none" xmlns="http://www.w3.org/2000/svg">
<circle cx="11.5" cy="11.5" r="10.5" fill="#CAD8EA"/>
<path d="M14.48 3.50768C12.023 2.6455 9.32054 3.94914 8.45569 6.4137C7.59085 8.87826 8.88613 11.5848 11.3431 12.4469C13.8 13.3091 16.5025 12.0055 17.3674 9.54092C18.2322 7.07636 16.9369 4.36985 14.48 3.50768ZM11.9705 10.6591C10.4965 10.1418 9.71918 8.5177 10.238 7.03914C10.7569 5.56059 12.3786 4.77829 13.8526 5.29553C15.3266 5.81277 16.1039 7.43692 15.585 8.91548C15.0662 10.394 13.4445 11.1763 11.9705 10.6591ZM16.5404 23.3068L16.8541 22.4129C18.0646 18.9632 16.2507 15.1731 12.8117 13.9663L9.24705 12.7154C5.80715 11.5083 2.02358 13.3342 0.813047 16.7839L0.499356 17.6778L2.28169 18.3032L2.59538 17.4093C3.46023 14.9447 6.16272 13.6411 8.61967 14.5033L12.1843 15.7542C14.6413 16.6163 15.9366 19.3229 15.0717 21.7874L14.758 22.6813L16.5404 23.3068Z" fill="white" fill-opacity="0.9"/>
</svg>
