<svg width="23" height="23" viewBox="0 0 23 23" fill="none" xmlns="http://www.w3.org/2000/svg">
<path fill-rule="evenodd" clip-rule="evenodd" d="M11.5 0C11.8389 0 12.1639 0.134623 12.4035 0.374253C12.6432 0.613883 12.7778 0.93889 12.7778 1.27778V11.5C12.7778 11.8389 12.6432 12.1639 12.4035 12.4035C12.1639 12.6432 11.8389 12.7778 11.5 12.7778H1.27778C0.93889 12.7778 0.613883 12.6432 0.374253 12.4035C0.134623 12.1639 0 11.8389 0 11.5C0 11.1611 0.134623 10.8361 0.374253 10.5965C0.613883 10.3568 0.93889 10.2222 1.27778 10.2222H10.2222V1.27778C10.2222 0.93889 10.3568 0.613883 10.5965 0.374253C10.8361 0.134623 11.1611 0 11.5 0Z" fill="#FEFFFF"/>
<path fill-rule="evenodd" clip-rule="evenodd" d="M10.2222 11.4999C10.2222 11.1611 10.3568 10.8361 10.5964 10.5964C10.8361 10.3568 11.1611 10.2222 11.4999 10.2222H21.7222C22.0611 10.2222 22.3861 10.3568 22.6257 10.5964C22.8653 10.8361 22.9999 11.1611 22.9999 11.4999C22.9999 11.8388 22.8653 12.1638 22.6257 12.4035C22.3861 12.6431 22.0611 12.7777 21.7222 12.7777H12.7777V21.7222C12.7777 22.0611 12.6431 22.3861 12.4035 22.6257C12.1638 22.8653 11.8388 22.9999 11.4999 22.9999C11.1611 22.9999 10.8361 22.8653 10.5964 22.6257C10.3568 22.3861 10.2222 22.0611 10.2222 21.7222V11.4999Z" fill="#FEFFFF"/>
</svg>
