<svg width="27" height="29" viewBox="0 0 27 29" fill="none" xmlns="http://www.w3.org/2000/svg">
<path d="M13.5 0C9.3645 0 6 3.3645 6 7.5C6 11.6355 9.3645 15 13.5 15C17.6355 15 21 11.6355 21 7.5C21 3.3645 17.6355 0 13.5 0ZM13.5 12C11.019 12 9 9.981 9 7.5C9 5.019 11.019 3 13.5 3C15.981 3 18 5.019 18 7.5C18 9.981 15.981 12 13.5 12ZM27 28.5V27C27 21.2115 22.2885 16.5 16.5 16.5H10.5C4.71 16.5 0 21.2115 0 27V28.5H3V27C3 22.8645 6.3645 19.5 10.5 19.5H16.5C20.6355 19.5 24 22.8645 24 27V28.5H27Z" fill="#002F67"/>
</svg>
