<svg width="21" height="21" viewBox="0 0 21 21" fill="none" xmlns="http://www.w3.org/2000/svg">
<circle cx="10.5" cy="10.5" r="10.5" fill="#CAD8EA"/>
<path d="M7.69939 17.5167C8.16016 17.6982 8.66603 17.7316 9.14667 17.6124C9.62731 17.4931 10.0589 17.227 10.3813 16.8512L6.18597 15.2048C6.16672 15.6996 6.30213 16.1882 6.57336 16.6025C6.84459 17.0168 7.23817 17.3364 7.69939 17.5167ZM15.0759 14.0427L16.4155 10.629C17.3553 8.23433 16.5205 5.57877 14.5552 4.10742C14.5527 3.47247 14.1716 2.87624 13.5418 2.6291C12.9121 2.38197 12.2272 2.55988 11.7935 3.02365C9.35178 2.76638 6.93395 4.14462 5.99419 6.5393L4.65452 9.95303L2.88521 10.725C2.78887 10.7669 2.70175 10.8273 2.62887 10.903C2.556 10.9786 2.4988 11.0679 2.46057 11.1657L2.16845 11.9101C2.09098 12.1075 2.0951 12.3276 2.17991 12.522C2.26473 12.7164 2.42329 12.8691 2.62071 12.9466L14.5308 17.6206C14.7282 17.698 14.9483 17.6939 15.1427 17.6091C15.3371 17.5243 15.4898 17.3657 15.5673 17.1683L15.8594 16.4239C15.8979 16.3262 15.9168 16.2218 15.9148 16.1168C15.9128 16.0118 15.89 15.9082 15.8479 15.8121L15.0759 14.0427Z" fill="white" fill-opacity="0.9"/>
</svg>
